<?xml version="1.0" standalone="no"?>
<!DOCTYPE svg PUBLIC "-//W3C//DTD SVG 20010904//EN"
 "http://www.w3.org/TR/2001/REC-SVG-20010904/DTD/svg10.dtd">
<svg version="1.0" xmlns="http://www.w3.org/2000/svg"
 width="1280.000000pt" height="1280.000000pt" viewBox="0 0 1280.000000 1280.000000"
 preserveAspectRatio="xMidYMid meet">
<metadata>
Created by potrace 1.15, written by Peter Selinger 2001-2017
</metadata>
<g transform="translate(0.000000,1280.000000) scale(0.100000,-0.100000)"
fill="#000000" stroke="none">
<path d="M5950 11119 c-1315 -46 -2306 -547 -2832 -1431 -313 -529 -501 -1233
-568 -2138 -30 -396 -30 -1068 0 -1477 55 -771 191 -1447 396 -1965 48 -121
495 -1036 569 -1163 194 -334 508 -680 821 -902 424 -302 896 -464 1491 -514
186 -15 767 -6 963 15 1031 112 1733 374 2295 857 627 538 1030 1451 1204
2729 102 749 125 1650 60 2335 -58 610 -181 1211 -330 1615 -210 566 -606
1091 -1059 1402 -366 252 -786 417 -1255 492 -105 17 -709 95 -930 121 -215
25 -536 34 -825 24z m722 -2286 c141 -240 213 -570 269 -1243 17 -201 23
-1287 10 -1564 -44 -882 -158 -1325 -410 -1590 -136 -142 -286 -212 -478 -223
l-102 -6 -11 27 c-35 94 -98 458 -124 726 -46 460 -64 1087 -47 1642 16 553
37 827 87 1158 103 673 310 1029 659 1131 96 28 96 28 147 -58z"/>
</g>
</svg>
